# xmcd CD database file
#
# Track frame offsets:
#	182
#	31602
#	42480
#	73302
#	107800
#	131127
#	164655
#	190605
#	216775
#
# Disc length: 3462 seconds
#
# Revision: 0
# Processed by: cddbd v1.5.2PL0 Copyright (c) Steve Scherf et al.
# Submitted via: CDex 1.70beta2
#
DISCID=840d8409
DTITLE=McCoy TYner - Remembering John
DYEAR=1991
DGENRE=Jazz
TTITLE0=India
TTITLE1=Giant Steps
TTITLE2=In Walked Bud
TTITLE3=Like Someone In Love
TTITLE4=One And Four
TTITLE5=Up 'Gainst The Wall
TTITLE6=Good Morning Heartache
TTITLE7=Pursuance
TTITLE8=The Wise One
EXTD=YEAR: 1991
EXTT0=
EXTT1=
EXTT2=
EXTT3=
EXTT4=
EXTT5=
EXTT6=
EXTT7=
EXTT8=
PLAYORDER=
